<svg width="278" height="150" xmlns="http://www.w3.org/2000/svg" xmlns:xlink="http://www.w3.org/1999/xlink" xml:space="preserve" overflow="hidden">
  <defs>
    <clipPath id="clip0">
      <rect x="841" y="155" width="278" height="150"/>
    </clipPath>
  </defs>
  <g clip-path="url(#clip0)" transform="translate(-841 -155)">
    <path d="M0 0 277.897 0 277.897 150 0 150Z" fill="#1A00D9" fill-opacity="0" transform="matrix(1.00037 0 0 1 841 155)"/>
    <path d="M224.951 49.5751C224.732 42.2082 218.826 36.2725 211.472 36.0064L211.472 49.5751 224.951 49.5751Z" fill="#FE6E06" transform="matrix(1.00037 0 0 1 841 155)"/>
    <path d="M90.0172 104.011C81.6803 108.719 72.4163 111.073 62.2275 111.073 50.3777 111.073 40.7961 107.251 33.4828 99.6094 26.1674 91.9678 22.5107 81.8562 22.5107 69.2725 22.5107 56.4206 26.573 45.8734 34.6974 37.633 42.8219 29.3927 53.118 25.2725 65.5837 25.2725 74.6159 25.2725 82.1996 26.7403 88.3369 29.6717L88.3369 40.4399C81.6202 36.1953 73.6695 34.0708 64.485 34.0708 55.1824 34.0708 47.5601 37.2747 41.6159 43.6824 35.6717 50.0901 32.6996 58.3884 32.6996 68.5773 32.6996 79.0773 35.4592 87.3262 40.9785 93.3283 46.4979 99.3305 53.985 102.33 63.4421 102.33 69.927 102.33 75.5429 101.039 80.2897 98.4506L80.2897 75.1781 62.1116 75.1781 62.1116 66.3777 90.0172 66.3777 90.0172 104.011Z" fill="#1A00D9" transform="matrix(1.00037 0 0 1 841 155)"/>
    <path d="M145.968 109.685 136.472 109.685 136.472 100.421 136.24 100.421C132.109 107.521 126.03 111.073 118.004 111.073 112.099 111.073 107.476 109.511 104.139 106.384 100.8 103.258 99.1309 99.1094 99.1309 93.9356 99.1309 82.8584 105.652 76.4142 118.7 74.5987L136.474 72.1094C136.474 62.0365 132.401 57 124.258 57 117.116 57 110.672 59.4313 104.921 64.294L104.921 54.5687C110.749 50.8627 117.464 49.0107 125.069 49.0107 139.002 49.0107 145.968 56.3841 145.968 71.1266L145.968 109.685ZM136.472 79.6931 122.172 81.6609C117.773 82.279 114.451 83.3691 112.215 84.9313 109.976 86.4936 108.856 89.2639 108.856 93.2382 108.856 96.133 109.888 98.4979 111.953 100.33 114.017 102.165 116.766 103.082 120.202 103.082 124.91 103.082 128.798 101.431 131.867 98.1309 134.936 94.8305 136.47 90.6545 136.47 85.5966L136.47 79.6931Z" fill="#1A00D9" transform="matrix(1.00037 0 0 1 841 155)"/>
    <path d="M204.391 109.685 194.895 109.685 194.895 75.8734C194.895 63.2918 190.3 57 181.116 57 176.369 57 172.44 58.7854 169.335 62.3562 166.227 65.927 164.674 70.4335 164.674 75.8755L164.674 109.687 155.178 109.687 155.178 50.3991 164.674 50.3991 164.674 60.2403 164.906 60.2403C169.382 52.7532 175.867 49.0086 184.358 49.0086 190.843 49.0086 195.803 51.103 199.238 55.2897 202.674 59.4785 204.391 65.5279 204.391 73.4399L204.391 109.685Z" fill="#1A00D9" transform="matrix(1.00037 0 0 1 841 155)"/>
    <path d="M222.959 109.685 213.464 109.685 213.464 55.0365 222.959 55.0365 222.959 109.685Z" fill="#1A00D9" transform="matrix(1.00037 0 0 1 841 155)"/>
    <path d="M231.959 58.5043 231.959 93.588C231.959 105.167 237.15 110.957 247.532 110.957 251.2 110.957 254.15 110.339 256.391 109.105L256.391 101C254.654 102.313 252.588 102.968 250.195 102.968 247.069 102.968 244.83 102.12 243.479 100.421 242.127 98.7232 241.453 95.8863 241.453 91.9099L241.453 58.5043 256.391 58.5043 256.391 50.3991 241.453 50.3991 241.453 36.0901 231.957 36.0901 231.957 50.3991" fill="#1A00D9" transform="matrix(1.00037 0 0 1 841 155)"/>
  </g>
</svg>
